<svg width="160" height="30" viewBox="0 0 160 30" fill="none" xmlns="http://www.w3.org/2000/svg">
<path d="M0 14.8385C0 6.16949 6.04778 0 14.591 0C23.1342 0 29.3493 6.16949 29.3493 14.8385C29.3493 23.5075 23.1914 29.7872 14.591 29.7872C5.99048 29.7872 0 23.6193 0 14.8385ZM23.5805 14.8385C23.5805 9.22629 19.918 5.27994 14.5925 5.27994C9.26693 5.27994 5.71456 9.22478 5.71456 14.8385C5.71456 20.4522 9.43279 24.5088 14.5925 24.5088C19.7522 24.5088 23.5805 20.5624 23.5805 14.8385Z" fill="#7455FF"/>
<path d="M48.2917 0.0559082C49.6789 0.0559082 50.8444 1.22335 50.8444 2.61281C50.8444 4.00227 49.6789 5.16971 48.2917 5.16971H46.5155C41.8549 5.16971 39.4138 8.33677 39.4138 12.8948V28.1214C39.4138 28.5654 38.9705 28.9551 38.5257 28.9551H34.42C33.9767 28.9551 33.5319 28.5654 33.5319 28.1214V12.783C33.5334 5.1682 38.3056 0.0559082 46.517 0.0559082H48.2932H48.2917Z" fill="#7455FF"/>
<path d="M72.8221 12.2257C72.8221 8.00146 70.381 5.11229 66.8859 5.11229C63.3908 5.11229 60.8381 8.00146 60.8381 12.1698V28.1199C60.8381 28.5639 60.3948 28.9536 59.95 28.9536H55.8443C55.3452 28.9536 54.9562 28.5639 54.9562 28.1199V2.94504C54.9562 1.38946 56.2876 0.0558803 57.8964 0.0558803C59.5052 0.0558803 60.7265 1.27921 60.7823 2.83479C62.6686 1.00132 65.1097 0 68.0499 0C71.934 0 75.0958 1.88936 76.9278 5.05793C78.7583 1.89087 81.9216 0 85.9158 0C92.1852 0 96.5126 4.89028 96.5126 12.0596V28.1199C96.5126 28.5639 96.0693 28.9536 95.6245 28.9536H91.5188C91.0755 28.9536 90.6307 28.5639 90.6307 28.1199V12.2257C90.6307 8.00146 88.2453 5.11229 84.6945 5.11229C81.1436 5.11229 78.6467 8.00146 78.6467 12.1698V28.1199C78.6467 28.5639 78.2592 28.9536 77.8144 28.9536H73.6529C73.2096 28.9536 72.8206 28.5639 72.8206 28.1199V12.2257H72.8221Z" fill="#7455FF"/>
<path d="M106.543 16.9499C107.375 21.452 110.758 24.397 115.253 24.397C117.694 24.397 119.802 23.953 121.688 22.8415C122.409 22.3974 123.131 22.2298 123.742 22.2298C125.239 22.2298 126.295 23.3972 126.295 24.7308C126.295 25.6763 125.74 26.6761 124.574 27.398C121.856 29.1212 118.694 29.677 115.253 29.677C106.708 29.677 100.662 23.509 100.662 14.8385C100.662 6.16798 106.487 0 114.698 0C122.91 0 128.347 5.83572 128.347 14.0048C128.347 16.3382 126.682 16.9499 125.517 16.9499H106.541H106.543ZM106.543 12.7815H122.576C122.077 8.27935 118.97 5.27994 114.698 5.27994C110.427 5.27994 107.319 8.28086 106.543 12.7815Z" fill="#7455FF"/>
<path d="M138.196 16.9499C139.028 21.452 142.411 24.397 146.906 24.397C149.347 24.397 151.455 23.953 153.342 22.8415C154.062 22.3974 154.784 22.2298 155.394 22.2298C156.892 22.2298 157.946 23.3972 157.946 24.7308C157.946 25.6763 157.391 26.6761 156.226 27.398C153.507 29.1212 150.346 29.677 146.905 29.677C138.36 29.677 132.312 23.509 132.312 14.8385C132.312 6.16798 138.14 0 146.351 0C154.563 0 160 5.83572 160 14.0048C160 16.3382 158.335 16.9499 157.17 16.9499H138.196ZM138.196 12.7815H154.23C153.731 8.27935 150.623 5.27994 146.351 5.27994C142.08 5.27994 138.972 8.28086 138.196 12.7815Z" fill="#7455FF"/>
</svg>
